<svg viewBox="0 0 24 24" xmlns="http://www.w3.org/2000/svg"><path d="m5 3c-1.105 0-2 .895-2 2v14c0 1.105.895 2 2 2h14c1.105 0 2-.895 2-2v-14c0-1.105-.895-2-2-2zm3 4c.25575 0 .5115313.0974688.7070312.2929688l3.2929688 3.2929692 3.292969-3.2929692c.09775-.09775.209734-.1718282.330078-.2207032.361031-.146625.790734-.0725469 1.083984.2207032.391.391.391 1.0230624 0 1.4140624l-3.292969 3.2929688 3.292969 3.292969c.29325.29325.367328.722953.220703 1.083984-.048875.120344-.122953.232328-.220703.330078-.0975.0975-.209703.169875-.330078.21875s-.248953.074219-.376953.074219c-.256 0-.512031-.097969-.707031-.292969l-3.292969-3.292969-3.2929688 3.292969c-.195.195-.4510312.292969-.7070312.292969s-.5120312-.097969-.7070312-.292969c-.3910001-.391-.3910001-1.023062 0-1.414062l3.2929692-3.292969-3.2929692-3.2929688c-.3910001-.391-.3910001-1.0230625 0-1.4140624.1955-.1955001.4512812-.2929688.7070312-.2929688z" fill="#fff"/></svg>